<svg xmlns="http://www.w3.org/2000/svg" viewBox="0 0 16 16" fill="#4f39f6" aria-hidden="true" id="Queue-List--Streamline-Heroicons" height="16" width="16">
  <desc>
    Queue List Streamline Icon: https://streamlinehq.com
  </desc>
  <path d="M3.75 2.5a1.75 1.75 0 1 0 0 3.5h8.5a1.75 1.75 0 0 0 0 -3.5H3.75Zm-1.25 5a0.5 0.5 0 0 0 0 1h11a0.5 0.5 0 0 0 0 -1H2.5ZM2 10.5a0.5 0.5 0 0 1 0.5 -0.5h11a0.5 0.5 0 0 1 0 1H2.5a0.5 0.5 0 0 1 -0.5 -0.5Zm0.5 2a0.5 0.5 0 0 0 0 1h11a0.5 0.5 0 0 0 0 -1H2.5Z" stroke-width="0.6667"></path>
</svg>